<svg width="12" height="12" viewBox="0 0 12 12" version="1.1" xmlns="http://www.w3.org/2000/svg" xmlns:xlink="http://www.w3.org/1999/xlink">
<title>search</title>
<desc>Created using Figma</desc>
<g id="Canvas" transform="translate(-2765 2735)">
<g id="search">
<g id="search">
<use xlink:href="#path0_fill" transform="translate(2765 -2735)"/>
</g>
<g id="search-path">
<use xlink:href="#path1_fill" transform="translate(2772 -2728)"/>
</g>
</g>
</g>
<defs>
<path id="path0_fill" fill-rule="evenodd" d="M 4.5 7.51733e-29C 6.98528 -1.42109e-14 9 2.01472 9 4.5C 9 6.98528 6.98528 9 4.5 9C 2.01472 9 0 6.98528 0 4.5C 0 2.01472 2.01472 7.51733e-29 4.5 7.51733e-29ZM 4.5 1C 6.433 1 8 2.567 8 4.5C 8 6.433 6.433 8 4.5 8C 2.567 8 1 6.433 1 4.5C 1 2.567 2.567 1 4.5 1Z"/>
<path id="path1_fill" fill-rule="evenodd" d="M 0.851283 0.136766L 4.85628 4.12877C 5.04256 4.32796 5.03724 4.63901 4.84426 4.83172C 4.65128 5.02443 4.34022 5.02932 4.14128 4.84277L 0.136283 0.850766C -0.0499932 0.651568 -0.044672 0.340518 0.148308 0.147808C 0.341288 -0.0449025 0.652345 -0.0497883 0.851283 0.136766Z"/>
</defs>
</svg>
