<svg width="679" height="657" viewBox="0 0 679 657" version="1.1" xmlns="http://www.w3.org/2000/svg" xmlns:xlink="http://www.w3.org/1999/xlink">
<title>ACCOUNTS</title>
<desc>Created using Figma</desc>
<g id="Canvas" transform="translate(-3941 55262)">
<g id="ACCOUNTS">
<g id="Rectangle 21" filter="url(#filter0_d)">
<use xlink:href="#path0_fill" transform="translate(4075 -55166)" fill="#FFFFFF"/>
</g>
<g id="Rectangle 21.2" filter="url(#filter1_d)">
<use xlink:href="#path0_fill" transform="translate(4304.11 -55129.5)" fill="#FFFFFF"/>
</g>
<g id="Rectangle 21.4" filter="url(#filter2_d)">
<use xlink:href="#path0_fill" transform="translate(4305.87 -54898.8)" fill="#FFFFFF"/>
</g>
<g id="Mobile Plans">
<use xlink:href="#path1_fill" transform="translate(4128 -55050)" fill="#AFACAC"/>
</g>
<g id="cash-money">
<g id="Page 1">
<g id="iPhone 7 Copy 30">
<g id="cash money">
<g id="Shape">
<use xlink:href="#path2_fill" transform="translate(4159 -55107)" fill="#0FC6DA"/>
</g>
<g id="Shape">
<use xlink:href="#path3_fill" transform="translate(4178.58 -55089)" fill="#0FC6DA"/>
</g>
</g>
</g>
</g>
</g>
<g id="charity">
<g id="Page 1">
<g id="charity">
<g id="Shape">
<use xlink:href="#path4_fill" transform="translate(4391 -55044.7)" fill="#0FC6DA"/>
</g>
<g id="Shape">
<use xlink:href="#path5_fill" transform="translate(4394.43 -55075)" fill="#0FC6DA"/>
</g>
<g id="Shape">
<use xlink:href="#path6_fill" transform="translate(4409 -55055.1)" fill="#0FC6DA"/>
</g>
<g id="Shape">
<use xlink:href="#path7_fill" transform="translate(4402.71 -55057.7)" fill="#0FC6DA"/>
</g>
<g id="Shape">
<use xlink:href="#path8_fill" transform="translate(4401.57 -55047.4)" fill="#0FC6DA"/>
</g>
<g id="Shape">
<use xlink:href="#path9_fill" transform="translate(4401.54 -55054.4)" fill="#0FC6DA"/>
</g>
<g id="Shape">
<use xlink:href="#path10_fill" transform="translate(4401.29 -55050.8)" fill="#0FC6DA"/>
</g>
<g id="Shape">
<use xlink:href="#path11_fill" transform="translate(4426.32 -55054.5)" fill="#0FC6DA"/>
</g>
<g id="Shape">
<use xlink:href="#path12_fill" transform="translate(4424.95 -55044.5)" fill="#0FC6DA"/>
</g>
<g id="Shape">
<use xlink:href="#path13_fill" transform="translate(4426.37 -55047.6)" fill="#0FC6DA"/>
</g>
<g id="Shape">
<use xlink:href="#path14_fill" transform="translate(4426.97 -55050.9)" fill="#0FC6DA"/>
</g>
</g>
</g>
</g>
<g id="Group 15">
<g id="Rectangle 21.3" filter="url(#filter3_d)">
<use xlink:href="#path0_fill" transform="translate(4041 -54930)" fill="#FFFFFF"/>
</g>
<g id="satellite-dish">
<g id="Page 1">
<g id="satellite dish">
<g id="Shape">
<use xlink:href="#path15_fill" transform="translate(4128 -54878.2)" fill="#0FC6DA"/>
</g>
<g id="Shape">
<use xlink:href="#path16_fill" transform="translate(4142.45 -54868.5)" fill="#0FC6DA"/>
</g>
<g id="Shape">
<use xlink:href="#path17_fill" transform="translate(4138.88 -54832.6)" fill="#0FC6DA"/>
</g>
</g>
</g>
</g>
</g>
<g id="Telecomms">
<use xlink:href="#path18_fill" transform="translate(4092 -54809)" fill="#AFACAC"/>
</g>
<g id="Life Insurance">
<use xlink:href="#path19_fill" transform="translate(4362 -55015)" fill="#AFACAC"/>
</g>
<g id="Business Plans">
<use xlink:href="#path20_fill" transform="translate(4342 -54773)" fill="#AFACAC"/>
</g>
<g id="team (2)">
<g id="Page 1">
<g id="iPhone 7 Copy 30">
<g id="team (2)">
<g id="Shape">
<use xlink:href="#path21_fill" transform="translate(4394.73 -54796.4)" fill="#0FC6DA"/>
</g>
<g id="Shape">
<use xlink:href="#path22_fill" transform="translate(4413.51 -54796.4)" fill="#0FC6DA"/>
</g>
<g id="Shape">
<use xlink:href="#path23_fill" transform="translate(4381.58 -54815.7)" fill="#0FC6DA"/>
</g>
<g id="Shape">
<use xlink:href="#path24_fill" transform="translate(4378.76 -54798.2)" fill="#0FC6DA"/>
</g>
<g id="Shape">
<use xlink:href="#path25_fill" transform="translate(4375 -54836)" fill="#0FC6DA"/>
</g>
<g id="Shape">
<use xlink:href="#path26_fill" transform="translate(4429.48 -54797.1)" fill="#0FC6DA"/>
</g>
</g>
</g>
</g>
</g>
<g id="Group 16">
<g id="Rectangle 21.5" filter="url(#filter4_d)">
<use xlink:href="#path0_fill" transform="translate(4193.08 -55026.6)" fill="#FFFFFF"/>
<mask id="mask0_outline_ins">
<use xlink:href="#path0_fill" fill="white" transform="translate(4193.08 -55026.6)"/>
</mask>
<g mask="url(#mask0_outline_ins)">
<use xlink:href="#path27_stroke_2x" transform="translate(4193.08 -55026.6)" fill="#000000" fill-opacity="0.05"/>
</g>
</g>
<g id="Accounts">
<use xlink:href="#path28_fill" transform="translate(4256 -54907)" fill="#AFACAC"/>
</g>
<g id="transfer-money">
<g id="Page 1">
<g id="iPhone 7 Copy 30">
<g id="transfer money">
<g id="Shape">
<use xlink:href="#path29_fill" transform="translate(4270 -54948.5)" fill="#0FC6DA"/>
</g>
<g id="Shape">
<use xlink:href="#path30_fill" transform="translate(4293.83 -54976)" fill="#0FC6DA"/>
</g>
<g id="Rectangle path">
<use xlink:href="#path31_fill" transform="translate(4284.67 -54943.9)" fill="#0FC6DA"/>
</g>
<g id="Rectangle path">
<use xlink:href="#path32_fill" transform="translate(4308.5 -54971.4)" fill="#0FC6DA"/>
</g>
<g id="Rectangle path">
<use xlink:href="#path33_fill" transform="translate(4277.33 -54964.1)" fill="#0FC6DA"/>
</g>
<g id="Rectangle path">
<use xlink:href="#path34_fill" transform="translate(4281 -54964.1)" fill="#0FC6DA"/>
</g>
<g id="Rectangle path">
<use xlink:href="#path35_fill" transform="translate(4284.67 -54964.1)" fill="#0FC6DA"/>
</g>
<g id="Rectangle path">
<use xlink:href="#path36_fill" transform="translate(4288.33 -54964.1)" fill="#0FC6DA"/>
</g>
<g id="Rectangle path">
<use xlink:href="#path37_fill" transform="translate(4292 -54964.1)" fill="#0FC6DA"/>
</g>
<g id="Rectangle path">
<use xlink:href="#path34_fill" transform="translate(4273.67 -54964.1)" fill="#0FC6DA"/>
</g>
<g id="Rectangle path">
<use xlink:href="#path34_fill" transform="translate(4273.67 -54960.4)" fill="#0FC6DA"/>
</g>
<g id="Rectangle path">
<use xlink:href="#path38_fill" transform="translate(4273.67 -54956.8)" fill="#0FC6DA"/>
</g>
<g id="Rectangle path">
<use xlink:href="#path39_fill" transform="translate(4273.67 -54953.1)" fill="#0FC6DA"/>
</g>
<g id="Rectangle path">
<use xlink:href="#path40_fill" transform="translate(4273.67 -54949.4)" fill="#0FC6DA"/>
</g>
<g id="Rectangle path">
<use xlink:href="#path41_fill" transform="translate(4315.83 -54932)" fill="#0FC6DA"/>
</g>
<g id="Rectangle path">
<use xlink:href="#path42_fill" transform="translate(4312.17 -54932)" fill="#0FC6DA"/>
</g>
<g id="Rectangle path">
<use xlink:href="#path43_fill" transform="translate(4308.5 -54932)" fill="#0FC6DA"/>
</g>
<g id="Rectangle path">
<use xlink:href="#path43_fill" transform="translate(4304.83 -54932)" fill="#0FC6DA"/>
</g>
<g id="Rectangle path">
<use xlink:href="#path44_fill" transform="translate(4301.17 -54932)" fill="#0FC6DA"/>
</g>
<g id="Rectangle path">
<use xlink:href="#path45_fill" transform="translate(4319.5 -54932)" fill="#0FC6DA"/>
</g>
<g id="Rectangle path">
<use xlink:href="#path46_fill" transform="translate(4319.5 -54935.7)" fill="#0FC6DA"/>
</g>
<g id="Rectangle path">
<use xlink:href="#path47_fill" transform="translate(4319.5 -54939.3)" fill="#0FC6DA"/>
</g>
<g id="Rectangle path">
<use xlink:href="#path48_fill" transform="translate(4319.5 -54943)" fill="#0FC6DA"/>
</g>
<g id="Rectangle path">
<use xlink:href="#path48_fill" transform="translate(4319.5 -54946.7)" fill="#0FC6DA"/>
</g>
</g>
</g>
</g>
</g>
</g>
</g>
</g>
<defs>
<filter id="filter0_d" filterUnits="userSpaceOnUse" x="3975" y="-55262" width="415" height="389" color-interpolation-filters="sRGB">
<feFlood flood-opacity="0" result="BackgroundImageFix"/>
<feColorMatrix in="SourceAlpha" type="matrix" values="0 0 0 0 0 0 0 0 0 0 0 0 0 0 0 0 0 0 255 0"/>
<feOffset dx="0" dy="4"/>
<feGaussianBlur stdDeviation="50"/>
<feColorMatrix type="matrix" values="0 0 0 0 0.805677 0 0 0 0 0.802159 0 0 0 0 0.802159 0 0 0 0.25 0"/>
<feBlend mode="normal" in2="BackgroundImageFix" result="effect1_dropShadow"/>
<feBlend mode="normal" in="SourceGraphic" in2="effect1_dropShadow" result="shape"/>
</filter>
<filter id="filter1_d" filterUnits="userSpaceOnUse" x="4204" y="-55226" width="415" height="390" color-interpolation-filters="sRGB">
<feFlood flood-opacity="0" result="BackgroundImageFix"/>
<feColorMatrix in="SourceAlpha" type="matrix" values="0 0 0 0 0 0 0 0 0 0 0 0 0 0 0 0 0 0 255 0"/>
<feOffset dx="0" dy="4"/>
<feGaussianBlur stdDeviation="50"/>
<feColorMatrix type="matrix" values="0 0 0 0 0.805677 0 0 0 0 0.802159 0 0 0 0 0.802159 0 0 0 0.25 0"/>
<feBlend mode="normal" in2="BackgroundImageFix" result="effect1_dropShadow"/>
<feBlend mode="normal" in="SourceGraphic" in2="effect1_dropShadow" result="shape"/>
</filter>
<filter id="filter2_d" filterUnits="userSpaceOnUse" x="4205" y="-54995" width="415" height="390" color-interpolation-filters="sRGB">
<feFlood flood-opacity="0" result="BackgroundImageFix"/>
<feColorMatrix in="SourceAlpha" type="matrix" values="0 0 0 0 0 0 0 0 0 0 0 0 0 0 0 0 0 0 255 0"/>
<feOffset dx="0" dy="4"/>
<feGaussianBlur stdDeviation="50"/>
<feColorMatrix type="matrix" values="0 0 0 0 0.805677 0 0 0 0 0.802159 0 0 0 0 0.802159 0 0 0 0.25 0"/>
<feBlend mode="normal" in2="BackgroundImageFix" result="effect1_dropShadow"/>
<feBlend mode="normal" in="SourceGraphic" in2="effect1_dropShadow" result="shape"/>
</filter>
<filter id="filter3_d" filterUnits="userSpaceOnUse" x="3941" y="-55026" width="415" height="389" color-interpolation-filters="sRGB">
<feFlood flood-opacity="0" result="BackgroundImageFix"/>
<feColorMatrix in="SourceAlpha" type="matrix" values="0 0 0 0 0 0 0 0 0 0 0 0 0 0 0 0 0 0 255 0"/>
<feOffset dx="0" dy="4"/>
<feGaussianBlur stdDeviation="50"/>
<feColorMatrix type="matrix" values="0 0 0 0 0.805677 0 0 0 0 0.802159 0 0 0 0 0.802159 0 0 0 0.25 0"/>
<feBlend mode="normal" in2="BackgroundImageFix" result="effect1_dropShadow"/>
<feBlend mode="normal" in="SourceGraphic" in2="effect1_dropShadow" result="shape"/>
</filter>
<filter id="filter4_d" filterUnits="userSpaceOnUse" x="4093" y="-55123" width="415" height="390" color-interpolation-filters="sRGB">
<feFlood flood-opacity="0" result="BackgroundImageFix"/>
<feColorMatrix in="SourceAlpha" type="matrix" values="0 0 0 0 0 0 0 0 0 0 0 0 0 0 0 0 0 0 255 0"/>
<feOffset dx="0" dy="4"/>
<feGaussianBlur stdDeviation="50"/>
<feColorMatrix type="matrix" values="0 0 0 0 0.805677 0 0 0 0 0.802159 0 0 0 0 0.802159 0 0 0 0.25 0"/>
<feBlend mode="normal" in2="BackgroundImageFix" result="effect1_dropShadow"/>
<feBlend mode="normal" in="SourceGraphic" in2="effect1_dropShadow" result="shape"/>
</filter>
<path id="path0_fill" d="M 0 20C 0 8.9543 8.9543 0 20 0L 194.129 0C 205.175 0 214.129 8.95431 214.129 20L 214.129 168.791C 214.129 179.836 205.175 188.791 194.129 188.791L 20 188.791C 8.95431 188.791 0 179.836 0 168.791L 0 20Z"/>
<path id="path1_fill" d="M 3.98535 21L 3.98535 11.0205L 4.08203 11.0205L 7.77734 19.3457L 9.58203 19.3457L 13.2773 11.0205L 13.374 11.0205L 13.374 21L 15.7158 21L 15.7158 6.33691L 13.1162 6.33691L 8.7334 16.3486L 8.6582 16.3486L 4.27539 6.33691L 1.6543 6.33691L 1.6543 21L 3.98535 21ZM 23.5146 9.44141C 20.2168 9.44141 18.4014 11.7402 18.4014 14.8555L 18.4014 15.7363C 18.4014 18.9697 20.2061 21.1934 23.5146 21.1934C 26.8125 21.1934 28.6064 18.9697 28.6064 15.7256L 28.6064 14.8447C 28.6064 11.7295 26.8018 9.44141 23.5146 9.44141ZM 23.5146 11.4395C 25.2334 11.4395 26.0498 12.8682 26.0498 14.8662L 26.0498 15.7471C 26.0498 17.6914 25.2441 19.1738 23.5146 19.1738C 21.7744 19.1738 20.958 17.6914 20.958 15.7471L 20.958 14.8662C 20.958 12.8789 21.7852 11.4395 23.5146 11.4395ZM 37.0498 21.1504C 39.7139 21.1504 41.4434 19.1846 41.4434 15.8223L 41.4434 14.791C 41.4434 11.3428 39.6709 9.47363 37.0713 9.47363C 35.5889 9.47363 34.3105 10.2256 33.7842 11.2568L 33.6768 11.2568L 33.6768 5.56348L 31.1416 5.56348L 31.1416 21L 33.623 21L 33.623 19.2598L 33.7197 19.2598C 34.3105 20.4307 35.4385 21.1504 37.0498 21.1504ZM 36.3623 19.0879C 34.6973 19.0879 33.6553 17.917 33.6553 15.7041L 33.6553 14.9092C 33.6553 12.707 34.708 11.5469 36.3623 11.5469C 37.834 11.5469 38.8545 12.7178 38.8545 14.9092L 38.8545 15.7256C 38.8545 17.9062 37.834 19.0879 36.3623 19.0879ZM 44.0645 21L 46.5889 21L 46.5889 9.63477L 44.0645 9.63477L 44.0645 21ZM 43.8496 6.8418C 43.8496 7.6582 44.5156 8.23828 45.3213 8.23828C 46.1377 8.23828 46.8037 7.6582 46.8037 6.8418C 46.8037 6.02539 46.1377 5.44531 45.3213 5.44531C 44.5156 5.44531 43.8496 6.02539 43.8496 6.8418ZM 49.7471 21L 52.2822 21L 52.2822 5.56348L 49.7471 5.56348L 49.7471 21ZM 59.8984 21.1934C 62.7773 21.1934 64.2705 19.5068 64.582 17.6699L 62.1973 17.6699C 61.9287 18.6367 61.1016 19.2275 59.9199 19.2275C 58.3623 19.2275 57.3525 18.0137 57.3525 16.166L 57.3525 15.876L 64.7109 15.876L 64.7109 14.7803C 64.7109 11.5576 62.8418 9.44141 59.791 9.44141C 56.8047 9.44141 54.8604 11.4502 54.8604 14.6836L 54.8604 15.8008C 54.8604 19.2061 56.8262 21.1934 59.8984 21.1934ZM 57.3525 14.168L 57.3525 14.1465C 57.3525 12.5889 58.3193 11.375 59.8018 11.375C 61.2734 11.375 62.2295 12.5781 62.2295 14.1465L 62.2295 14.168L 57.3525 14.168ZM 71.6719 6.33691L 71.6719 21L 74.2715 21L 74.2715 15.8975L 77.3652 15.8975C 80.416 15.8975 82.2529 13.9102 82.2529 11.1279C 82.2529 8.38867 80.4375 6.33691 77.3867 6.33691L 71.6719 6.33691ZM 74.2715 8.45312L 76.957 8.45312C 78.6221 8.45312 79.6104 9.41992 79.6104 11.1279C 79.6104 13.2441 78.3213 13.8027 76.1514 13.8027L 74.2715 13.8027L 74.2715 8.45312ZM 84.3369 21L 86.8721 21L 86.8721 5.56348L 84.3369 5.56348L 84.3369 21ZM 96.1748 19.6143L 96.2715 19.6143L 96.2715 21L 98.6777 21L 98.6777 13.2764C 98.6777 10.6982 96.7549 9.45215 94.1982 9.45215C 91.083 9.45215 89.8154 11.1172 89.7188 13.04L 92.1035 13.04C 92.1787 12.0732 92.8984 11.4072 94.1445 11.4072C 95.4336 11.4072 96.1641 12.1055 96.1641 13.3516L 96.1641 14.4043L 93.3281 14.4043C 90.707 14.415 89.2998 15.7041 89.2998 17.7344C 89.2998 19.8506 90.8252 21.1719 93.0273 21.1719C 94.7031 21.1719 95.6914 20.4736 96.1748 19.6143ZM 93.8223 19.2705C 92.8018 19.2705 91.835 18.7227 91.835 17.5732C 91.835 16.6602 92.4688 16.0264 93.8008 16.0264L 96.1641 16.0264L 96.1641 17.2617C 96.1641 18.4541 95.1436 19.2705 93.8223 19.2705ZM 101.524 21L 104.06 21L 104.06 14.2646C 104.06 12.793 104.865 11.6436 106.466 11.6436C 107.809 11.6436 108.851 12.4277 108.851 14.2217L 108.851 21L 111.386 21L 111.386 13.6953C 111.386 10.9131 109.731 9.45215 107.411 9.45215C 105.531 9.45215 104.489 10.4834 104.113 11.2461L 104.017 11.2461L 104.017 9.63477L 101.524 9.63477L 101.524 21ZM 113.792 12.9648C 113.792 15.0596 115.479 15.79 117.541 16.2197C 119.034 16.5205 120.366 16.7031 120.366 17.8525C 120.366 18.6582 119.7 19.3564 118.25 19.3564C 116.95 19.3564 116.166 18.7441 116.048 17.8525L 113.577 17.8525C 113.577 19.8828 115.296 21.1934 118.1 21.1934C 121.011 21.1934 122.837 19.8506 122.837 17.5303C 122.837 15.3926 121.226 14.7266 119.12 14.3506C 117.831 14.1143 116.23 13.8994 116.23 12.7178C 116.23 11.8047 117.015 11.2676 118.186 11.2676C 119.679 11.2676 120.162 12.127 120.237 12.8896L 122.504 12.8896C 122.504 10.8379 120.946 9.44141 118.25 9.44141C 115.919 9.44141 113.792 10.4834 113.792 12.9648Z"/>
<path id="path2_fill" d="M 46.2167 11.75L 43.0833 11.75L 39.95 11.75L 33.6833 11.75L 33.6833 3.91667C 33.6833 1.75702 31.9263 0 29.7667 0L 7.83333 0C 5.67368 0 3.91667 1.75702 3.91667 3.91667L 3.91667 27.1331L 0.181733 31.6153C 0.0642333 31.7563 0 31.9334 0 32.1167L 0 47L 1.56667 47L 1.56667 32.4002L 3.91667 29.5802L 3.91667 36.8167C 3.91667 37.1331 4.1078 37.419 4.39998 37.5405C 4.69373 37.6603 5.029 37.5945 5.25382 37.3705L 8.38715 34.2371C 8.53442 34.0907 8.61667 33.8909 8.61667 33.6833L 8.61667 28.5917C 8.61667 27.9438 9.14385 27.4167 9.79167 27.4167C 10.4395 27.4167 10.9667 27.9438 10.9667 28.5917L 10.9667 41.9757L 8.06285 44.8795C 7.91558 45.026 7.83333 45.2257 7.83333 45.4333L 7.83333 47L 9.4 47L 9.4 45.7576L 12.3038 42.8538C 12.4511 42.7073 12.5333 42.5076 12.5333 42.3L 12.5333 41.5167L 29.7667 41.5167C 31.9263 41.5167 33.6833 39.7597 33.6833 37.6L 33.6833 29.7667L 39.95 29.7667L 43.0833 29.7667L 46.2167 29.7667C 46.6491 29.7667 47 29.4157 47 28.9833L 47 12.5333C 47 12.1009 46.6491 11.75 46.2167 11.75ZM 5.48333 3.91667C 5.48333 2.62103 6.5377 1.56667 7.83333 1.56667L 29.7667 1.56667C 31.0623 1.56667 32.1167 2.62103 32.1167 3.91667L 32.1167 5.48333L 5.48333 5.48333L 5.48333 3.91667ZM 32.1167 37.6C 32.1167 38.8956 31.0623 39.95 29.7667 39.95L 12.5333 39.95L 12.5333 36.0333L 32.1167 36.0333L 32.1167 37.6ZM 32.1167 34.4667L 12.5333 34.4667L 12.5333 28.5917C 12.5333 27.0798 11.3035 25.85 9.79167 25.85C 8.27983 25.85 7.05 27.0798 7.05 28.5917L 7.05 33.359L 5.48333 34.9257L 5.48333 7.05L 32.1167 7.05L 32.1167 11.75L 22.7167 11.75C 22.7167 10.022 21.3114 8.61667 19.5833 8.61667C 17.8553 8.61667 16.45 10.022 16.45 11.75L 16.45 12.5333L 16.45 28.9833L 16.45 29.7667C 16.45 31.4947 17.8553 32.9 19.5833 32.9C 21.3114 32.9 22.7167 31.4947 22.7167 29.7667L 32.1167 29.7667L 32.1167 34.4667ZM 21.15 11.75L 18.0167 11.75C 18.0167 10.886 18.7193 10.1833 19.5833 10.1833C 20.4474 10.1833 21.15 10.886 21.15 11.75ZM 18.0167 16.45L 33.782 16.45C 34.0664 17.5498 34.9335 18.4169 36.0333 18.7013L 36.0333 22.8162C 34.9335 23.1005 34.0664 23.9676 33.782 25.0674L 18.0167 25.0674L 18.0167 16.45ZM 18.0167 29.7667L 21.15 29.7667C 21.15 30.6307 20.4474 31.3333 19.5833 31.3333C 18.7193 31.3333 18.0167 30.6307 18.0167 29.7667ZM 39.1667 28.2L 18.0167 28.2L 18.0167 26.6333L 34.4667 26.6333C 34.8991 26.6333 35.25 26.2824 35.25 25.85C 35.25 24.986 35.9526 24.2833 36.8167 24.2833C 37.2491 24.2833 37.6 23.9324 37.6 23.5L 37.6 18.0167C 37.6 17.5843 37.2491 17.2333 36.8167 17.2333C 35.9526 17.2333 35.25 16.5307 35.25 15.6667C 35.25 15.2343 34.8991 14.8833 34.4667 14.8833L 18.0167 14.8833L 18.0167 13.3167L 39.1667 13.3167L 39.1667 28.2ZM 42.3 28.2L 40.7333 28.2L 40.7333 13.3167L 42.3 13.3167L 42.3 28.2ZM 45.4333 28.2L 43.8667 28.2L 43.8667 13.3167L 45.4333 13.3167L 45.4333 28.2Z"/>
<path id="path3_fill" d="M 2.74167 -6.57023e-07C 1.22983 -6.57023e-07 3.9336e-07 1.22983 3.9336e-07 2.74167C 3.9336e-07 4.2535 1.22983 5.48333 2.74167 5.48333C 4.2535 5.48333 5.48333 4.2535 5.48333 2.74167C 5.48333 1.22983 4.2535 -6.57023e-07 2.74167 -6.57023e-07ZM 2.74167 3.91667C 2.09385 3.91667 1.56667 3.38948 1.56667 2.74167C 1.56667 2.09385 2.09385 1.56667 2.74167 1.56667C 3.38948 1.56667 3.91667 2.09385 3.91667 2.74167C 3.91667 3.38948 3.38948 3.91667 2.74167 3.91667Z"/>
<path id="path4_fill" d="M 41.2906 3.01944L 24.2916 6.01456L 19.4633 1.12284C 19.303 0.959585 19.0853 0.868404 18.8573 0.868404L 10.2858 0.868404C 10.2858 0.388177 9.90264 -3.93495e-09 9.42864 -3.93495e-09L 6.00004 -3.93495e-09L -1.70407e-08 -3.93495e-09L -1.70407e-08 1.73681L 5.14289 1.73681L 5.14289 13.8944L -1.70407e-08 13.8944L -1.70407e-08 15.6313L 6.00004 15.6313L 9.42864 15.6313C 9.90264 15.6313 10.2858 15.2431 10.2858 14.7629L 12.6549 14.7629L 21.8187 19.4053C 22.2147 19.6059 22.6442 19.7067 23.0719 19.7067C 23.5596 19.7067 24.0464 19.5773 24.4827 19.3194L 43.1823 8.2672C 44.0394 7.76092 44.5717 6.82217 44.5717 5.81656C 44.5717 4.97682 44.2074 4.18483 43.5732 3.64382C 42.9406 3.1028 42.1049 2.87615 41.2906 3.01944ZM 8.57149 13.8944L 6.85719 13.8944L 6.85719 1.73681L 8.57149 1.73681L 8.57149 13.8944ZM 42.3183 6.7666L 23.6196 17.8188C 23.3024 18.0063 22.9159 18.0185 22.5859 17.8518L 13.2412 13.1181C 13.1221 13.0573 12.9901 13.026 12.8572 13.026L 10.2858 13.026L 10.2858 2.60521L 18.5024 2.60521L 25.2559 9.44736C 25.5473 9.74261 25.7145 10.1516 25.7145 10.5702C 25.7145 11.4456 25.0116 12.1576 24.1476 12.1576C 23.7353 12.1576 23.3307 11.9883 23.0393 11.693L 18.6061 7.20167L 17.3941 8.42959L 21.8273 12.921C 22.447 13.5488 23.2707 13.8944 24.1476 13.8944C 25.9562 13.8944 27.4288 12.4025 27.4288 10.5702C 27.4288 9.68269 27.0876 8.84729 26.4679 8.21943L 25.7736 7.51603L 41.5828 4.73019C 41.9009 4.67201 42.2231 4.76232 42.4691 4.97248C 42.716 5.18263 42.8574 5.49004 42.8574 5.81569C 42.8574 6.20561 42.6509 6.57034 42.3183 6.7666Z"/>
<path id="path5_fill" d="M 44.5717 5.978L 44.5717 4.24119L 39.188 4.24119C 39.032 4.07707 38.8151 4.24119 38.5717 4.24119L 35.1431 4.24119C 34.6691 4.24119 34.2859 4.24119 34.2859 5.1096L 31.9168 5.1096L 22.7522 0.333381C 21.9027 -0.0973474 20.9067 -0.131215 20.089 0.352485L 1.38944 11.3708C 0.532289 11.8771 -7.67433e-08 12.7993 -7.67433e-08 13.8049C -7.67433e-08 14.6447 0.364288 15.4271 0.997721 15.9681C 1.50772 16.4023 2.14459 16.6307 2.79945 16.6307C 2.96059 16.6307 3.12088 16.6142 3.28117 16.5864L 20.2793 13.5904L 25.1076 18.6159C 25.2687 18.7783 25.4865 19.004 25.7145 19.004L 34.2859 19.004C 34.2859 19.004 34.6691 19.8724 35.1431 19.8724L 37.9554 19.8724C 38.1114 19.8724 38.3283 19.8724 38.5717 19.8724L 44.5717 19.8724L 44.5717 18.1356L 39.4288 18.1356L 39.4288 5.978L 44.5717 5.978ZM 26.0693 17.2672L 19.3167 10.2922C 19.0201 9.99176 18.8573 9.52543 18.8573 9.10165C 18.8573 8.22543 19.5601 7.47947 20.4241 7.47947C 20.8424 7.47947 21.2359 7.62797 21.5324 7.92843L 25.9656 12.4103L 27.1776 11.178L 22.7453 6.68662C 22.1256 6.05702 21.301 5.71053 20.4241 5.71053C 18.6156 5.71053 17.143 7.20158 17.143 9.03478C 17.143 9.92142 17.4833 10.756 18.1038 11.3855L 18.7973 12.0881L 2.98802 14.8739C 2.66745 14.9304 2.34773 14.8409 2.10087 14.6316C 1.85573 14.4215 1.7143 14.1141 1.7143 13.7884C 1.7143 13.3976 1.92087 13.0329 2.25344 12.8366L 20.9521 1.78535C 21.2693 1.59864 21.6559 1.58562 21.9859 1.75235L 31.3305 6.62062C 31.4496 6.68054 31.5816 6.8464 31.7145 6.8464L 34.2859 6.8464L 34.2859 17.2672L 26.0693 17.2672ZM 36.0002 5.978L 37.7145 5.978L 37.7145 18.1356L 36.0002 18.1356L 36.0002 5.978Z"/>
<path id="path6_fill" d="M 6.00004 0.90485C 4.60374 -0.333493 2.42144 -0.301361 1.06544 1.00559C 0.378002 1.66905 4.91543e-07 2.55308 4.91543e-07 3.49703C 4.91543e-07 4.44012 0.378002 5.32415 1.06544 5.98674L 5.40861 10.1759C 5.57489 10.3357 5.78747 10.4156 6.00004 10.4156C 6.21261 10.4156 6.42518 10.3357 6.59061 10.1768L 10.9338 5.98761C 11.6221 5.32415 12.0001 4.44012 12.0001 3.49703C 12.0001 2.55308 11.6221 1.66905 10.9346 1.00559C 10.9346 1.00472 10.9346 1.00472 10.9346 1.00472C 9.57778 -0.30223 7.39548 -0.332625 6.00004 0.90485ZM 9.75264 4.72843L 6.00004 8.34793L 2.24744 4.72843C 1.90458 4.3967 1.7143 3.95902 1.7143 3.49617C 1.7143 3.03331 1.90373 2.59476 2.24744 2.26303C 2.61688 1.90699 3.10202 1.72896 3.58631 1.72896C 4.07146 1.72896 4.5566 1.90699 4.92518 2.26303L 5.40775 2.7285C 5.73947 3.0472 6.25804 3.0472 6.58976 2.7285L 7.07233 2.26303C 7.81034 1.55094 9.0112 1.55181 9.75092 2.26216C 10.0964 2.59476 10.2858 3.03331 10.2858 3.49617C 10.2858 3.95902 10.0955 4.3967 9.75264 4.72843Z"/>
<path id="path7_fill" d="M 2.34087 0.971743L 0.91972 -3.42938e-07C 0.578575 0.512357 0.268288 1.05077 4.42525e-07 1.59873L 1.53515 2.37248C 1.76915 1.89225 2.04087 1.42158 2.34087 0.971743Z"/>
<path id="path8_fill" d="M 1.54516e-07 0.356046C 0.125144 0.962192 0.290573 1.56313 0.492003 2.13888L 2.10773 1.56052C 1.93201 1.05685 1.78715 0.531464 1.67744 1.34375e-06L 1.54516e-07 0.356046Z"/>
<path id="path9_fill" d="M -2.20756e-07 1.79065L 1.68258 2.12325C 1.78458 1.59352 1.92258 1.06727 2.09316 0.558384L 0.468861 -2.43422e-07C 0.274288 0.58183 0.117429 1.1845 -2.20756e-07 1.79065Z"/>
<path id="path10_fill" d="M -1.904e-07 0.844956C 0.000856971 1.18277 0.0128569 1.51797 0.0359999 1.85057L 1.74515 1.72812C 1.72544 1.43547 1.71515 1.13848 1.7143 0.842351C 1.7143 0.595725 1.72115 0.350834 1.73573 0.106812L 0.0248571 1.13773e-06C 0.00857127 0.279627 -1.904e-07 0.56012 -1.904e-07 0.844956Z"/>
<path id="path11_fill" d="M -5.86441e-07 0.576619C 0.178286 1.08811 0.322289 1.61262 0.429433 2.13627L 2.10859 1.7837C 1.98516 1.1845 1.81973 0.584436 1.61744 6.32508e-07L -5.86441e-07 0.576619Z"/>
<path id="path12_fill" d="M 3.37074e-07 1.39987L 1.41944 2.37335C 1.76058 1.86186 2.07173 1.32432 2.34087 0.773748L 0.805719 -9.18144e-07C 0.570861 0.481963 0.299145 0.952638 3.37074e-07 1.39987Z"/>
<path id="path13_fill" d="M 7.02319e-07 1.56486L 1.6243 2.12324C 1.81973 1.54141 1.97658 0.939611 2.09401 0.332597L 0.411432 1.20771e-06C 0.308574 0.530596 0.170573 1.05598 7.02319e-07 1.56486Z"/>
<path id="path14_fill" d="M 1.74515 1.01603C 1.74601 0.674749 1.73315 0.336073 1.70915 1.11148e-06L -1.30349e-06 0.126786C 0.0205703 0.41857 0.0317149 0.713828 0.0308577 1.01343C 0.0308577 1.25918 0.0240013 1.50321 0.00942989 1.74636L 1.7203 1.85317C 1.73658 1.57441 1.74515 1.29479 1.74515 1.01603Z"/>
<path id="path15_fill" d="M 42.7102 30.7784L 37.4202 25.5342L 37.3879 10.2759C 38.0656 10.1034 38.6873 9.75415 39.1951 9.25072C 40.7379 7.72112 40.7379 5.23218 39.1951 3.70268C 38.4475 2.96169 37.4538 2.55359 36.3969 2.55359C 35.3397 2.55359 34.3461 2.96169 33.5985 3.70268C 33.0908 4.20601 32.7385 4.82219 32.5645 5.49415L 17.1732 5.46208L 11.953 0.287174C 11.5666 -0.0957246 10.9404 -0.0957246 10.5539 0.287174C 6.25922 4.54468 3.89415 10.2053 3.89415 16.2264C 3.89415 21.8997 5.99466 27.2525 9.83012 31.4137L 6.21219 42.1731L 2.96794 42.1731C 2.52624 42.1731 2.13799 42.4634 2.01671 42.8844L 0.0380841 49.7498C -0.0472222 50.0457 0.0125625 50.3642 0.199553 50.6098C 0.386544 50.8555 0.678936 51 0.989315 51L 40.5624 51C 40.8729 51 41.1653 50.8556 41.3522 50.6098C 41.5391 50.3642 41.5989 50.0456 41.5136 49.7498L 39.535 42.8844C 39.4136 42.4634 39.0255 42.1731 38.5838 42.1731L 35.3396 42.1731L 33.8108 37.6265C 37.128 36.5365 40.1674 34.6865 42.7103 32.1656C 43.0966 31.7824 43.0966 31.1615 42.7102 30.7784ZM 34.9977 5.08984C 35.3834 4.70734 35.89 4.51619 36.3969 4.51619C 36.9034 4.51619 37.4102 4.70744 37.7959 5.08974C 38.5674 5.85454 38.5674 7.09896 37.7959 7.86376C 37.0247 8.62856 35.7692 8.62876 34.9977 7.86376C 34.624 7.49331 34.4181 7.00065 34.4181 6.4768C 34.4181 5.95296 34.624 5.46019 34.9977 5.08984ZM 34.3862 9.85704C 34.7057 10.0446 35.0495 10.1857 35.4093 10.2769L 35.4375 23.5685L 27.9963 16.1917L 34.3862 9.85704ZM 32.5634 7.45566C 32.6554 7.81226 32.7978 8.15323 32.9869 8.46998L 26.5971 14.8045L 19.1559 7.42787L 32.5634 7.45566ZM 11.396 32.9593C 15.5812 36.7133 20.9474 38.7678 26.6322 38.7678C 28.4307 38.7678 30.1971 38.5605 31.9047 38.1605L 33.2539 42.1731L 8.29793 42.1731L 11.396 32.9593ZM 34.6264 44.1346L 37.8375 44.1346L 39.251 49.0385L 2.30086 49.0385L 2.72488 47.5674L 8.90391 47.5674C 9.45021 47.5674 9.89322 47.1283 9.89322 46.5866C 9.89322 46.0449 9.45021 45.6059 8.90391 45.6059L 3.29017 45.6059L 3.71419 44.1347L 6.92529 44.1347L 34.6264 44.1347L 34.6264 44.1346ZM 32.3861 36.0091C 32.3509 36.015 32.3158 36.0222 32.2809 36.032C 30.4229 36.551 28.5292 36.8037 26.6493 36.8036C 21.2113 36.8033 15.896 34.6875 11.9529 30.7785C 11.9412 30.7668 11.9299 30.7549 11.9182 30.7432L 11.8709 30.6952C 11.8706 30.6949 11.8702 30.6946 11.8699 30.6943C 8.00212 26.8169 5.87257 21.6842 5.87257 16.2264C 5.87267 12.3978 6.92107 8.72937 8.88161 5.54157L 12.6407 9.26815C 12.8339 9.4597 13.0871 9.55543 13.3402 9.55543C 13.5933 9.55543 13.8466 9.4597 14.0398 9.26815C 14.4261 8.88516 14.4261 8.26409 14.0398 7.88109L 10.0123 3.88845C 10.4053 3.37038 10.8244 2.86825 11.2694 2.38385L 25.8967 16.8847C 25.897 16.8849 25.8971 16.885 25.8973 16.8852C 25.8975 16.8854 25.8976 16.8855 25.8978 16.8857L 40.5951 31.4557C 38.2165 33.604 35.4162 35.1476 32.3861 36.0091Z"/>
<path id="path16_fill" d="M 1.95883 0.789006C 1.94597 0.726252 1.92718 0.664494 1.90246 0.605625C 1.87774 0.54576 1.8471 0.488883 1.81143 0.43599C 1.77586 0.382002 1.73426 0.331998 1.68874 0.286875C 1.64323 0.241752 1.59279 0.200613 1.53833 0.165252C 1.48487 0.12999 1.42649 0.0995099 1.36721 0.075006C 1.30793 0.0505021 1.24563 0.0318749 1.18223 0.0191249C 1.05462 -0.00637506 0.922996 -0.00637506 0.795488 0.0191249C 0.733091 0.0318749 0.670695 0.0505021 0.610508 0.075006C 0.551025 0.0995099 0.493651 0.129891 0.440196 0.165252C 0.385737 0.200514 0.335297 0.241752 0.28978 0.286875C 0.244264 0.331998 0.202766 0.382002 0.166092 0.43599C 0.130522 0.488982 0.0997746 0.545859 0.0750568 0.605625C 0.0503392 0.664494 0.0315497 0.726252 0.0186883 0.789006C 0.0058271 0.85176 -1.983e-07 0.916506 -1.983e-07 0.980256C -1.983e-07 1.04401 0.00592754 1.10875 0.0186883 1.17151C 0.0314491 1.23426 0.0503392 1.29602 0.0750568 1.35588C 0.0997746 1.41475 0.130422 1.47163 0.166092 1.52462C 0.202666 1.57861 0.244264 1.62861 0.28978 1.67374C 0.335297 1.71886 0.385737 1.7601 0.440196 1.79636C 0.493651 1.83162 0.551025 1.8621 0.610508 1.8866C 0.670795 1.91111 0.733091 1.92973 0.795488 1.94248C 0.859694 1.95523 0.925107 1.96111 0.989413 1.96111C 1.05362 1.96111 1.11903 1.95523 1.18223 1.94248C 1.24563 1.92973 1.30793 1.91111 1.36721 1.8866C 1.4267 1.8621 1.48497 1.83172 1.53833 1.79636C 1.59279 1.7601 1.64323 1.71886 1.68874 1.67374C 1.73426 1.62861 1.77576 1.57861 1.81143 1.52462C 1.847 1.47163 1.87774 1.41475 1.90246 1.35588C 1.92718 1.29602 1.94597 1.23426 1.95883 1.17151C 1.97169 1.10875 1.97862 1.04401 1.97862 0.980256C 1.97862 0.916506 1.97169 0.85176 1.95883 0.789006Z"/>
<path id="path17_fill" d="M 1.95893 0.789007C 1.94697 0.726253 1.92728 0.664495 1.90256 0.605625C 1.87784 0.54576 1.8471 0.488881 1.81153 0.435989C 1.77596 0.382001 1.73436 0.331997 1.68884 0.286874C 1.64333 0.241751 1.59289 0.200516 1.53833 0.165255C 1.48487 0.129993 1.4275 0.0995086 1.36812 0.0750046C 1.30773 0.0505008 1.24543 0.0308808 1.18213 0.0191269C 1.05553 -0.00637314 0.9239 -0.00637314 0.796293 0.0191269C 0.732991 0.0308808 0.670694 0.0505008 0.611311 0.0750046C 0.551024 0.0995086 0.493651 0.129893 0.440297 0.165255C 0.385837 0.200516 0.335297 0.241751 0.28978 0.286874C 0.244264 0.331997 0.202766 0.382001 0.167196 0.435989C 0.131627 0.488981 0.100881 0.54586 0.0761629 0.605625C 0.0514451 0.664495 0.0316508 0.726253 0.0197943 0.789007C 0.00693309 0.851761 -1.86415e-07 0.916504 -1.86415e-07 0.980254C -1.86415e-07 1.044 0.00693309 1.10875 0.0197943 1.17151C 0.0316508 1.23426 0.0514451 1.29602 0.0761629 1.35489C 0.100881 1.41475 0.131526 1.47163 0.167196 1.52452C 0.202665 1.57851 0.244264 1.62851 0.28978 1.67363C 0.335297 1.71876 0.385837 1.76 0.440297 1.79526C 0.493751 1.83052 0.551124 1.861 0.611311 1.8855C 0.670794 1.91001 0.732991 1.92963 0.796293 1.94238C 0.859695 1.95513 0.925006 1.96101 0.989212 1.96101C 1.05352 1.96101 1.11893 1.95513 1.18213 1.94238C 1.24543 1.92963 1.30773 1.91001 1.36812 1.8855C 1.4275 1.861 1.48487 1.83062 1.53833 1.79526C 1.59289 1.76 1.64333 1.71876 1.68884 1.67363C 1.87272 1.49125 1.97872 1.23814 1.97872 0.980254C 1.97872 0.916504 1.97179 0.851761 1.95893 0.789007Z"/>
<path id="path18_fill" d="M 7.01465 21L 7.01465 8.53906L 11.2793 8.53906L 11.2793 6.33691L 0.182617 6.33691L 0.182617 8.53906L 4.43652 8.53906L 4.43652 21L 7.01465 21ZM 15.791 21.1934C 18.6699 21.1934 20.1631 19.5068 20.4746 17.6699L 18.0898 17.6699C 17.8213 18.6367 16.9941 19.2275 15.8125 19.2275C 14.2549 19.2275 13.2451 18.0137 13.2451 16.166L 13.2451 15.876L 20.6035 15.876L 20.6035 14.7803C 20.6035 11.5576 18.7344 9.44141 15.6836 9.44141C 12.6973 9.44141 10.7529 11.4502 10.7529 14.6836L 10.7529 15.8008C 10.7529 19.2061 12.7188 21.1934 15.791 21.1934ZM 13.2451 14.168L 13.2451 14.1465C 13.2451 12.5889 14.2119 11.375 15.6943 11.375C 17.166 11.375 18.1221 12.5781 18.1221 14.1465L 18.1221 14.168L 13.2451 14.168ZM 23.1494 21L 25.6846 21L 25.6846 5.56348L 23.1494 5.56348L 23.1494 21ZM 33.3008 21.1934C 36.1797 21.1934 37.6729 19.5068 37.9844 17.6699L 35.5996 17.6699C 35.3311 18.6367 34.5039 19.2275 33.3223 19.2275C 31.7646 19.2275 30.7549 18.0137 30.7549 16.166L 30.7549 15.876L 38.1133 15.876L 38.1133 14.7803C 38.1133 11.5576 36.2441 9.44141 33.1934 9.44141C 30.207 9.44141 28.2627 11.4502 28.2627 14.6836L 28.2627 15.8008C 28.2627 19.2061 30.2285 21.1934 33.3008 21.1934ZM 30.7549 14.168L 30.7549 14.1465C 30.7549 12.5889 31.7217 11.375 33.2041 11.375C 34.6758 11.375 35.6318 12.5781 35.6318 14.1465L 35.6318 14.168L 30.7549 14.168ZM 40.1221 15.7578C 40.1221 18.9912 41.9697 21.1934 45.0635 21.1934C 47.7275 21.1934 49.4355 19.8506 49.7148 17.4873L 47.3408 17.4873C 47.1904 18.3574 46.5137 19.1201 45.2139 19.1201C 43.6455 19.1201 42.668 17.8203 42.668 15.7578L 42.668 14.8125C 42.668 12.7607 43.6133 11.5039 45.2031 11.5039C 46.2988 11.5039 47.0938 12.3418 47.2764 13.2871L 49.6611 13.2871C 49.5752 11.2354 47.8779 9.44141 45.0742 9.44141C 41.959 9.44141 40.1221 11.6328 40.1221 14.7588L 40.1221 15.7578ZM 56.665 9.44141C 53.3672 9.44141 51.5518 11.7402 51.5518 14.8555L 51.5518 15.7363C 51.5518 18.9697 53.3564 21.1934 56.665 21.1934C 59.9629 21.1934 61.7568 18.9697 61.7568 15.7256L 61.7568 14.8447C 61.7568 11.7295 59.9521 9.44141 56.665 9.44141ZM 56.665 11.4395C 58.3838 11.4395 59.2002 12.8682 59.2002 14.8662L 59.2002 15.7471C 59.2002 17.6914 58.3945 19.1738 56.665 19.1738C 54.9248 19.1738 54.1084 17.6914 54.1084 15.7471L 54.1084 14.8662C 54.1084 12.8789 54.9355 11.4395 56.665 11.4395ZM 64.249 21L 66.7842 21L 66.7842 14.0068C 66.7842 12.3955 67.7402 11.6113 68.9326 11.6113C 70.1895 11.6113 71.0596 12.3633 71.0596 14.0283L 71.0596 21L 73.5303 21L 73.5303 14.0283C 73.5303 12.5459 74.3252 11.6113 75.6895 11.6113C 77.0107 11.6113 77.8057 12.46 77.8057 13.9102L 77.8057 21L 80.3408 21L 80.3408 13.2441C 80.3408 10.9561 78.9658 9.45215 76.6025 9.45215C 74.7119 9.45215 73.5195 10.3975 73.1328 11.375L 73.0254 11.375C 72.6172 10.2148 71.5752 9.45215 69.8135 9.45215C 68.1699 9.45215 67.1924 10.376 66.8701 11.1924L 66.7412 11.1924L 66.7412 9.63477L 64.249 9.63477L 64.249 21ZM 83.2412 21L 85.7764 21L 85.7764 14.0068C 85.7764 12.3955 86.7324 11.6113 87.9248 11.6113C 89.1816 11.6113 90.0518 12.3633 90.0518 14.0283L 90.0518 21L 92.5225 21L 92.5225 14.0283C 92.5225 12.5459 93.3174 11.6113 94.6816 11.6113C 96.0029 11.6113 96.7979 12.46 96.7979 13.9102L 96.7979 21L 99.333 21L 99.333 13.2441C 99.333 10.9561 97.958 9.45215 95.5947 9.45215C 93.7041 9.45215 92.5117 10.3975 92.125 11.375L 92.0176 11.375C 91.6094 10.2148 90.5674 9.45215 88.8057 9.45215C 87.1621 9.45215 86.1846 10.376 85.8623 11.1924L 85.7334 11.1924L 85.7334 9.63477L 83.2412 9.63477L 83.2412 21ZM 101.825 12.9648C 101.825 15.0596 103.512 15.79 105.574 16.2197C 107.067 16.5205 108.399 16.7031 108.399 17.8525C 108.399 18.6582 107.733 19.3564 106.283 19.3564C 104.983 19.3564 104.199 18.7441 104.081 17.8525L 101.61 17.8525C 101.61 19.8828 103.329 21.1934 106.133 21.1934C 109.044 21.1934 110.87 19.8506 110.87 17.5303C 110.87 15.3926 109.259 14.7266 107.153 14.3506C 105.864 14.1143 104.264 13.8994 104.264 12.7178C 104.264 11.8047 105.048 11.2676 106.219 11.2676C 107.712 11.2676 108.195 12.127 108.271 12.8896L 110.537 12.8896C 110.537 10.8379 108.979 9.44141 106.283 9.44141C 103.952 9.44141 101.825 10.4834 101.825 12.9648Z"/>
<path id="path19_fill" d="M 10.5918 18.7656L 4.21094 18.7656L 4.21094 6.33691L 1.61133 6.33691L 1.61133 21L 10.5918 21L 10.5918 18.7656ZM 12.6328 21L 15.1572 21L 15.1572 9.63477L 12.6328 9.63477L 12.6328 21ZM 12.418 6.8418C 12.418 7.6582 13.084 8.23828 13.8896 8.23828C 14.7061 8.23828 15.3721 7.6582 15.3721 6.8418C 15.3721 6.02539 14.7061 5.44531 13.8896 5.44531C 13.084 5.44531 12.418 6.02539 12.418 6.8418ZM 19.0674 21L 21.5918 21L 21.5918 11.6436L 23.751 11.6436L 23.751 9.63477L 21.5488 9.63477L 21.5488 8.71094C 21.5488 7.56152 22.0967 7.19629 23.2246 7.19629C 23.5469 7.19629 23.7188 7.21777 23.8799 7.23926L 23.8799 5.37012C 23.6758 5.33789 23.3428 5.29492 22.7627 5.29492C 20.2168 5.29492 19.0674 6.25098 19.0674 8.49609L 19.0674 9.63477L 17.4668 9.63477L 17.4668 11.6436L 19.0674 11.6436L 19.0674 21ZM 30.4648 21.1934C 33.3438 21.1934 34.8369 19.5068 35.1484 17.6699L 32.7637 17.6699C 32.4951 18.6367 31.668 19.2275 30.4863 19.2275C 28.9287 19.2275 27.9189 18.0137 27.9189 16.166L 27.9189 15.876L 35.2773 15.876L 35.2773 14.7803C 35.2773 11.5576 33.4082 9.44141 30.3574 9.44141C 27.3711 9.44141 25.4268 11.4502 25.4268 14.6836L 25.4268 15.8008C 25.4268 19.2061 27.3926 21.1934 30.4648 21.1934ZM 27.9189 14.168L 27.9189 14.1465C 27.9189 12.5889 28.8857 11.375 30.3682 11.375C 31.8398 11.375 32.7959 12.5781 32.7959 14.1465L 32.7959 14.168L 27.9189 14.168ZM 44.8379 21L 44.8379 6.33691L 42.2383 6.33691L 42.2383 21L 44.8379 21ZM 47.9424 21L 50.4775 21L 50.4775 14.2646C 50.4775 12.793 51.2832 11.6436 52.8838 11.6436C 54.2266 11.6436 55.2686 12.4277 55.2686 14.2217L 55.2686 21L 57.8037 21L 57.8037 13.6953C 57.8037 10.9131 56.1494 9.45215 53.8291 9.45215C 51.9492 9.45215 50.9072 10.4834 50.5312 11.2461L 50.4346 11.2461L 50.4346 9.63477L 47.9424 9.63477L 47.9424 21ZM 60.21 12.9648C 60.21 15.0596 61.8965 15.79 63.959 16.2197C 65.4521 16.5205 66.7842 16.7031 66.7842 17.8525C 66.7842 18.6582 66.1182 19.3564 64.668 19.3564C 63.3682 19.3564 62.584 18.7441 62.4658 17.8525L 59.9951 17.8525C 59.9951 19.8828 61.7139 21.1934 64.5176 21.1934C 67.4287 21.1934 69.2549 19.8506 69.2549 17.5303C 69.2549 15.3926 67.6436 14.7266 65.5381 14.3506C 64.249 14.1143 62.6484 13.8994 62.6484 12.7178C 62.6484 11.8047 63.4326 11.2676 64.6035 11.2676C 66.0967 11.2676 66.5801 12.127 66.6553 12.8896L 68.9219 12.8896C 68.9219 10.8379 67.3643 9.44141 64.668 9.44141C 62.3369 9.44141 60.21 10.4834 60.21 12.9648ZM 81.2646 9.63477L 78.7295 9.63477L 78.7295 16.4561C 78.7295 18.1104 77.709 19.002 76.334 19.002C 75.1094 19.002 74.0029 18.4326 74.0029 16.4883L 74.0029 9.63477L 71.457 9.63477L 71.457 17.1758C 71.457 19.8291 73.0576 21.1719 75.3887 21.1719C 77.2471 21.1719 78.2998 20.2803 78.665 19.3887L 78.7832 19.3887L 78.7832 21L 81.2646 21L 81.2646 9.63477ZM 84.2295 21L 86.8184 21L 86.8184 14.3613C 86.8184 12.8252 87.4629 11.6758 89.3535 11.6758C 89.7617 11.6758 90.1914 11.6973 90.4062 11.7617L 90.4062 9.53809C 90.1807 9.49512 89.9121 9.46289 89.5684 9.46289C 88 9.46289 87.1514 10.4404 86.8721 11.1494L 86.7646 11.1494L 86.7646 9.63477L 84.2295 9.63477L 84.2295 21ZM 98.4736 19.6143L 98.5703 19.6143L 98.5703 21L 100.977 21L 100.977 13.2764C 100.977 10.6982 99.0537 9.45215 96.4971 9.45215C 93.3818 9.45215 92.1143 11.1172 92.0176 13.04L 94.4023 13.04C 94.4775 12.0732 95.1973 11.4072 96.4434 11.4072C 97.7324 11.4072 98.4629 12.1055 98.4629 13.3516L 98.4629 14.4043L 95.627 14.4043C 93.0059 14.415 91.5986 15.7041 91.5986 17.7344C 91.5986 19.8506 93.124 21.1719 95.3262 21.1719C 97.002 21.1719 97.9902 20.4736 98.4736 19.6143ZM 96.1211 19.2705C 95.1006 19.2705 94.1338 18.7227 94.1338 17.5732C 94.1338 16.6602 94.7676 16.0264 96.0996 16.0264L 98.4629 16.0264L 98.4629 17.2617C 98.4629 18.4541 97.4424 19.2705 96.1211 19.2705ZM 103.823 21L 106.358 21L 106.358 14.2646C 106.358 12.793 107.164 11.6436 108.765 11.6436C 110.107 11.6436 111.149 12.4277 111.149 14.2217L 111.149 21L 113.685 21L 113.685 13.6953C 113.685 10.9131 112.03 9.45215 109.71 9.45215C 107.83 9.45215 106.788 10.4834 106.412 11.2461L 106.315 11.2461L 106.315 9.63477L 103.823 9.63477L 103.823 21ZM 116.048 15.7578C 116.048 18.9912 117.896 21.1934 120.989 21.1934C 123.653 21.1934 125.361 19.8506 125.641 17.4873L 123.267 17.4873C 123.116 18.3574 122.439 19.1201 121.14 19.1201C 119.571 19.1201 118.594 17.8203 118.594 15.7578L 118.594 14.8125C 118.594 12.7607 119.539 11.5039 121.129 11.5039C 122.225 11.5039 123.02 12.3418 123.202 13.2871L 125.587 13.2871C 125.501 11.2354 123.804 9.44141 121 9.44141C 117.885 9.44141 116.048 11.6328 116.048 14.7588L 116.048 15.7578ZM 132.516 21.1934C 135.395 21.1934 136.888 19.5068 137.199 17.6699L 134.814 17.6699C 134.546 18.6367 133.719 19.2275 132.537 19.2275C 130.979 19.2275 129.97 18.0137 129.97 16.166L 129.97 15.876L 137.328 15.876L 137.328 14.7803C 137.328 11.5576 135.459 9.44141 132.408 9.44141C 129.422 9.44141 127.478 11.4502 127.478 14.6836L 127.478 15.8008C 127.478 19.2061 129.443 21.1934 132.516 21.1934ZM 129.97 14.168L 129.97 14.1465C 129.97 12.5889 130.937 11.375 132.419 11.375C 133.891 11.375 134.847 12.5781 134.847 14.1465L 134.847 14.168L 129.97 14.168Z"/>
<path id="path20_fill" d="M 1.61133 21L 7.47656 21C 10.5059 21 12.5898 19.4746 12.5898 16.8643C 12.5898 14.7158 11.1719 13.4805 9.3457 13.2764L 9.3457 13.1582C 10.8066 12.7822 11.8057 11.6865 11.8057 9.94629C 11.8057 7.70117 10.1299 6.33691 7.55176 6.33691L 1.61133 6.33691L 1.61133 21ZM 4.2002 8.35645L 6.98242 8.35645C 8.41113 8.35645 9.23828 9.11914 9.23828 10.3867C 9.23828 11.7725 8.31445 12.5029 6.20898 12.5029L 4.2002 12.5029L 4.2002 8.35645ZM 4.2002 14.4043L 7.17578 14.4043C 8.95898 14.4043 9.93652 15.2852 9.93652 16.7568C 9.93652 18.25 8.9375 18.9805 6.4668 18.9805L 4.2002 18.9805L 4.2002 14.4043ZM 24.417 9.63477L 21.8818 9.63477L 21.8818 16.4561C 21.8818 18.1104 20.8613 19.002 19.4863 19.002C 18.2617 19.002 17.1553 18.4326 17.1553 16.4883L 17.1553 9.63477L 14.6094 9.63477L 14.6094 17.1758C 14.6094 19.8291 16.21 21.1719 18.541 21.1719C 20.3994 21.1719 21.4521 20.2803 21.8174 19.3887L 21.9355 19.3887L 21.9355 21L 24.417 21L 24.417 9.63477ZM 26.9736 12.9648C 26.9736 15.0596 28.6602 15.79 30.7227 16.2197C 32.2158 16.5205 33.5479 16.7031 33.5479 17.8525C 33.5479 18.6582 32.8818 19.3564 31.4316 19.3564C 30.1318 19.3564 29.3477 18.7441 29.2295 17.8525L 26.7588 17.8525C 26.7588 19.8828 28.4775 21.1934 31.2812 21.1934C 34.1924 21.1934 36.0186 19.8506 36.0186 17.5303C 36.0186 15.3926 34.4072 14.7266 32.3018 14.3506C 31.0127 14.1143 29.4121 13.8994 29.4121 12.7178C 29.4121 11.8047 30.1963 11.2676 31.3672 11.2676C 32.8604 11.2676 33.3438 12.127 33.4189 12.8896L 35.6855 12.8896C 35.6855 10.8379 34.1279 9.44141 31.4316 9.44141C 29.1006 9.44141 26.9736 10.4834 26.9736 12.9648ZM 38.4785 21L 41.0029 21L 41.0029 9.63477L 38.4785 9.63477L 38.4785 21ZM 38.2637 6.8418C 38.2637 7.6582 38.9297 8.23828 39.7354 8.23828C 40.5518 8.23828 41.2178 7.6582 41.2178 6.8418C 41.2178 6.02539 40.5518 5.44531 39.7354 5.44531C 38.9297 5.44531 38.2637 6.02539 38.2637 6.8418ZM 44.0752 21L 46.6104 21L 46.6104 14.2646C 46.6104 12.793 47.416 11.6436 49.0166 11.6436C 50.3594 11.6436 51.4014 12.4277 51.4014 14.2217L 51.4014 21L 53.9365 21L 53.9365 13.6953C 53.9365 10.9131 52.2822 9.45215 49.9619 9.45215C 48.082 9.45215 47.04 10.4834 46.6641 11.2461L 46.5674 11.2461L 46.5674 9.63477L 44.0752 9.63477L 44.0752 21ZM 61.3379 21.1934C 64.2168 21.1934 65.71 19.5068 66.0215 17.6699L 63.6367 17.6699C 63.3682 18.6367 62.541 19.2275 61.3594 19.2275C 59.8018 19.2275 58.792 18.0137 58.792 16.166L 58.792 15.876L 66.1504 15.876L 66.1504 14.7803C 66.1504 11.5576 64.2812 9.44141 61.2305 9.44141C 58.2441 9.44141 56.2998 11.4502 56.2998 14.6836L 56.2998 15.8008C 56.2998 19.2061 58.2656 21.1934 61.3379 21.1934ZM 58.792 14.168L 58.792 14.1465C 58.792 12.5889 59.7588 11.375 61.2412 11.375C 62.7129 11.375 63.6689 12.5781 63.6689 14.1465L 63.6689 14.168L 58.792 14.168ZM 68.2021 12.9648C 68.2021 15.0596 69.8887 15.79 71.9512 16.2197C 73.4443 16.5205 74.7764 16.7031 74.7764 17.8525C 74.7764 18.6582 74.1104 19.3564 72.6602 19.3564C 71.3604 19.3564 70.5762 18.7441 70.458 17.8525L 67.9873 17.8525C 67.9873 19.8828 69.7061 21.1934 72.5098 21.1934C 75.4209 21.1934 77.2471 19.8506 77.2471 17.5303C 77.2471 15.3926 75.6357 14.7266 73.5303 14.3506C 72.2412 14.1143 70.6406 13.8994 70.6406 12.7178C 70.6406 11.8047 71.4248 11.2676 72.5957 11.2676C 74.0889 11.2676 74.5723 12.127 74.6475 12.8896L 76.9141 12.8896C 76.9141 10.8379 75.3564 9.44141 72.6602 9.44141C 70.3291 9.44141 68.2021 10.4834 68.2021 12.9648ZM 79.1807 12.9648C 79.1807 15.0596 80.8672 15.79 82.9297 16.2197C 84.4229 16.5205 85.7549 16.7031 85.7549 17.8525C 85.7549 18.6582 85.0889 19.3564 83.6387 19.3564C 82.3389 19.3564 81.5547 18.7441 81.4365 17.8525L 78.9658 17.8525C 78.9658 19.8828 80.6846 21.1934 83.4883 21.1934C 86.3994 21.1934 88.2256 19.8506 88.2256 17.5303C 88.2256 15.3926 86.6143 14.7266 84.5088 14.3506C 83.2197 14.1143 81.6191 13.8994 81.6191 12.7178C 81.6191 11.8047 82.4033 11.2676 83.5742 11.2676C 85.0674 11.2676 85.5508 12.127 85.626 12.8896L 87.8926 12.8896C 87.8926 10.8379 86.335 9.44141 83.6387 9.44141C 81.3076 9.44141 79.1807 10.4834 79.1807 12.9648ZM 95.0684 6.33691L 95.0684 21L 97.668 21L 97.668 15.8975L 100.762 15.8975C 103.812 15.8975 105.649 13.9102 105.649 11.1279C 105.649 8.38867 103.834 6.33691 100.783 6.33691L 95.0684 6.33691ZM 97.668 8.45312L 100.354 8.45312C 102.019 8.45312 103.007 9.41992 103.007 11.1279C 103.007 13.2441 101.718 13.8027 99.5479 13.8027L 97.668 13.8027L 97.668 8.45312ZM 107.733 21L 110.269 21L 110.269 5.56348L 107.733 5.56348L 107.733 21ZM 119.571 19.6143L 119.668 19.6143L 119.668 21L 122.074 21L 122.074 13.2764C 122.074 10.6982 120.151 9.45215 117.595 9.45215C 114.479 9.45215 113.212 11.1172 113.115 13.04L 115.5 13.04C 115.575 12.0732 116.295 11.4072 117.541 11.4072C 118.83 11.4072 119.561 12.1055 119.561 13.3516L 119.561 14.4043L 116.725 14.4043C 114.104 14.415 112.696 15.7041 112.696 17.7344C 112.696 19.8506 114.222 21.1719 116.424 21.1719C 118.1 21.1719 119.088 20.4736 119.571 19.6143ZM 117.219 19.2705C 116.198 19.2705 115.231 18.7227 115.231 17.5732C 115.231 16.6602 115.865 16.0264 117.197 16.0264L 119.561 16.0264L 119.561 17.2617C 119.561 18.4541 118.54 19.2705 117.219 19.2705ZM 124.921 21L 127.456 21L 127.456 14.2646C 127.456 12.793 128.262 11.6436 129.862 11.6436C 131.205 11.6436 132.247 12.4277 132.247 14.2217L 132.247 21L 134.782 21L 134.782 13.6953C 134.782 10.9131 133.128 9.45215 130.808 9.45215C 128.928 9.45215 127.886 10.4834 127.51 11.2461L 127.413 11.2461L 127.413 9.63477L 124.921 9.63477L 124.921 21ZM 137.188 12.9648C 137.188 15.0596 138.875 15.79 140.938 16.2197C 142.431 16.5205 143.763 16.7031 143.763 17.8525C 143.763 18.6582 143.097 19.3564 141.646 19.3564C 140.347 19.3564 139.562 18.7441 139.444 17.8525L 136.974 17.8525C 136.974 19.8828 138.692 21.1934 141.496 21.1934C 144.407 21.1934 146.233 19.8506 146.233 17.5303C 146.233 15.3926 144.622 14.7266 142.517 14.3506C 141.228 14.1143 139.627 13.8994 139.627 12.7178C 139.627 11.8047 140.411 11.2676 141.582 11.2676C 143.075 11.2676 143.559 12.127 143.634 12.8896L 145.9 12.8896C 145.9 10.8379 144.343 9.44141 141.646 9.44141C 139.315 9.44141 137.188 10.4834 137.188 12.9648Z"/>
<path id="path21_fill" d="M 0.878905 -7.29127e-07C 0.393515 -7.29127e-07 -5.90464e-07 0.385723 -5.90464e-07 0.861502L -5.90464e-07 4.54459C -5.90464e-07 5.02037 0.393515 5.40609 0.878905 5.40609C 1.36429 5.40609 1.75781 5.02037 1.75781 4.54459L 1.75781 0.861502C 1.75781 0.385723 1.36429 -7.29127e-07 0.878905 -7.29127e-07Z"/>
<path id="path22_fill" d="M 0.878905 -7.29127e-07C 0.393515 -7.29127e-07 6.97552e-07 0.385723 6.97552e-07 0.861502L 6.97552e-07 4.54459C 6.97552e-07 5.02037 0.393515 5.40609 0.878905 5.40609C 1.36429 5.40609 1.75781 5.02037 1.75781 4.54459L 1.75781 0.861502C 1.75781 0.385723 1.36429 -7.29127e-07 0.878905 -7.29127e-07Z"/>
<path id="path23_fill" d="M 6.90819 1.01175C 4.86726 0.0114867 1.04074 -4.86871e-07 0.878788 -4.86871e-07C 0.393515 -4.86871e-07 0.000117499 0.385493 3.15025e-07 0.861272C -0.000116869 1.33694 0.393164 1.72277 0.878553 1.723C 1.86738 1.72358 4.73671 1.87382 6.1221 2.5528C 6.24831 2.61471 6.38237 2.64389 6.51444 2.64389C 6.83682 2.64389 7.14725 2.46929 7.30124 2.16754C 7.51838 1.74196 7.34237 1.22448 6.90819 1.01175Z"/>
<path id="path24_fill" d="M 0.878904 9.89097e-07C 0.393515 9.89097e-07 6.53154e-08 0.385722 6.53154e-08 0.8615L 6.53154e-08 6.38625C 6.53154e-08 6.86203 0.393515 7.24775 0.878904 7.24775C 1.36429 7.24775 1.75781 6.86203 1.75781 6.38625L 1.75781 0.8615C 1.75781 0.385837 1.36441 9.89097e-07 0.878904 9.89097e-07Z"/>
<path id="path25_fill" d="M 57.9561 34.5348L 54.3969 32.7907C 54.3763 32.7806 54.3634 32.7601 54.3634 32.7376L 54.3636 30.9842C 55.8247 29.998 56.8589 28.4391 57.1177 26.6095C 57.7748 25.4963 58.1211 24.239 58.1211 22.9605C 58.1211 20.5764 56.95 18.4558 55.1424 17.1212C 55.2483 16.7754 55.303 16.4186 55.303 16.0546C 55.303 13.8025 53.2231 11.9703 50.6666 11.9703C 48.1102 11.9703 46.0302 13.8025 46.0302 16.0546C 46.0302 16.4191 46.0844 16.776 46.1903 17.1216C 45.1125 17.9174 44.2627 18.9935 43.751 20.2375C 43.5332 18.139 43.3063 15.6582 43.0887 12.7684C 42.8016 8.95548 41.4026 5.73553 39.0432 3.4568C 36.7016 1.1953 33.5745 -4.62232e-11 29.9999 -4.62232e-11C 26.4254 -4.62232e-11 23.2982 1.1953 20.957 3.45669C 18.5975 5.73553 17.1985 8.95548 16.9114 12.7683C 16.8351 13.7806 16.7578 14.7401 16.6801 15.6534L 8.39401 15.6534C 5.31948 15.6534 2.81812 18.1052 2.81812 21.1188L 2.81812 21.1702C 2.81812 21.872 2.98734 22.5749 3.30761 23.2026L 3.75749 24.0847L 3.75749 25.4912C 3.75749 27.7203 4.87815 29.7205 6.57561 30.9242L 6.57561 32.1685C 6.57561 32.328 6.46628 32.47 6.30983 32.5139L 2.68136 33.5301C 1.10262 33.9721 0 35.4049 0 37.0143L 0 44.1385C 0 44.6143 0.393515 45 0.878904 45C 1.36429 45 1.75781 44.6143 1.75781 44.1385L 1.75781 37.0143C 1.75781 36.1701 2.33625 35.4185 3.16429 35.1866L 6.79288 34.1704C 6.92378 34.1337 7.04811 34.084 7.16647 34.0249L 9.39385 36.2082L 9.39385 44.1385C 9.39385 44.6143 9.78736 45 10.2728 45C 10.7581 45 11.1517 44.6143 11.1517 44.1385L 11.1517 36.2082L 13.3946 34.0097C 13.6944 34.1538 13.9931 34.2377 14.212 34.299L 15.103 34.5485C 13.8956 35.39 13.1515 36.7626 13.1515 38.2509L 13.1515 44.1383C 13.1515 44.614 13.545 44.9998 14.0304 44.9998C 14.5158 44.9998 14.9093 44.614 14.9093 44.1383L 14.9093 38.2509C 14.9093 37.1341 15.5827 36.121 16.625 35.6698L 21.65 33.4944C 23.2246 36.5853 26.4424 38.5544 30.0001 38.5544C 33.571 38.5544 36.7779 36.5897 38.3516 33.4951L 43.3751 35.6698C 44.4174 36.121 45.0908 37.1341 45.0908 38.2509L 45.0908 44.1383C 45.0908 44.614 45.4844 44.9998 45.9698 44.9998C 46.4551 44.9998 46.8487 44.614 46.8487 44.1383L 46.8487 38.2509C 46.8487 37.1488 46.44 36.1107 45.7387 35.3036L 47.0989 34.6371L 48.1199 35.5882C 48.834 36.2535 49.7502 36.5859 50.6667 36.5859C 51.5829 36.5859 52.4995 36.2532 53.2135 35.5882L 54.2344 34.6372L 57.1702 36.0759C 57.8314 36.3999 58.2422 37.0514 58.2422 37.7761L 58.2422 44.1384C 58.2422 44.6142 58.6357 44.9999 59.1211 44.9999C 59.6065 44.9999 60 44.6142 60 44.1384L 60 37.7761C 59.9999 36.3947 59.2167 35.1527 57.9561 34.5348ZM 50.6665 13.6932C 52.2537 13.6932 53.5451 14.7525 53.5451 16.0545C 53.5451 16.109 53.5406 16.1631 53.5362 16.2171C 52.6524 15.8544 51.683 15.6534 50.6665 15.6534C 49.6501 15.6534 48.6809 15.8544 47.7973 16.217C 47.7927 16.163 47.7879 16.109 47.7879 16.0545C 47.7879 14.7525 49.0793 13.6932 50.6665 13.6932ZM 10.2729 34.6332L 8.27014 32.6701C 8.31151 32.5083 8.33366 32.3401 8.33366 32.1683L 8.33366 31.8049C 8.88655 31.9828 9.46967 32.0884 10.0731 32.1061C 10.1407 32.1081 10.2079 32.1091 10.2753 32.1091C 10.9419 32.1091 11.5926 32.0104 12.2119 31.8221L 12.2119 32.168C 12.2119 32.3549 12.2314 32.5244 12.2662 32.6793L 10.2729 34.6332ZM 10.1258 30.3837C 7.58354 30.3091 5.5153 28.1142 5.5153 25.4912L 5.5153 23.8813C 5.5153 23.7476 5.48354 23.6156 5.42249 23.496L 4.8798 22.4321C 4.68105 22.0423 4.57593 21.606 4.57593 21.1702L 4.57593 21.1188C 4.57593 19.0553 6.28874 17.3764 8.39401 17.3764L 15.9697 17.3764L 15.9697 20.9527C 15.9697 21.5306 15.8304 22.1095 15.5666 22.6264L 15.123 23.4959C 15.062 23.6156 15.0302 23.7475 15.0302 23.8812L 15.0302 25.7227C 15.0302 26.9947 14.5172 28.1834 13.5855 29.0695C 12.6544 29.9551 11.4249 30.4222 10.1258 30.3837ZM 17.4715 33.4198L 14.6949 32.6423C 13.9695 32.4392 13.9697 32.3599 13.9697 32.1682L 13.9699 30.9813C 14.2651 30.7809 14.5466 30.5565 14.8099 30.306C 14.9871 30.1375 15.1521 29.9601 15.3068 29.7764C 15.448 30.0571 15.6644 30.3023 15.9441 30.4798C 16.6487 30.927 17.9782 31.6698 19.9333 32.354L 17.4715 33.4198ZM 29.9999 36.8315C 27.1403 36.8315 24.5505 35.2647 23.259 32.7979L 24.5383 32.244C 25.5367 31.8118 26.1819 30.8413 26.1819 29.7714L 26.1819 27.7043C 27.3628 28.1694 28.6514 28.4259 29.9999 28.4259C 31.3485 28.4259 32.637 28.1694 33.818 27.7043L 33.818 29.7714C 33.818 30.8413 34.4631 31.8119 35.4616 32.244L 36.7407 32.7978C 35.4501 35.2673 32.8702 36.8315 29.9999 36.8315ZM 37.6211 31.2954L 36.1717 30.6678C 35.8097 30.5112 35.5758 30.1592 35.5758 29.7713L 35.5758 26.8095C 38.4003 25.0133 40.2728 21.8952 40.2728 18.3564L 40.2728 16.741C 40.2728 15.6912 39.8174 14.7008 39.0234 14.024C 37.2575 12.5185 33.2601 9.89141 26.3299 9.21209C 25.8481 9.16476 25.4162 9.51005 25.3679 9.98365C 25.3196 10.4571 25.672 10.8793 26.155 10.9266C 32.6009 11.5584 36.2615 13.953 37.8699 15.3242C 38.2799 15.6736 38.515 16.1901 38.515 16.741L 38.515 18.3564C 38.515 22.9585 34.6952 26.7027 30.0001 26.7027C 25.305 26.7027 21.4851 22.9585 21.4851 18.3564L 21.4851 17.6357C 21.4851 17.3047 21.6724 17.0014 21.986 16.8244C 23.0848 16.2043 24.534 15.0554 25.1976 13.1041C 25.3511 12.6528 25.1022 12.1649 24.6417 12.0144C 24.1814 11.8639 23.6834 12.1079 23.5299 12.5593C 23.041 13.997 21.9434 14.8602 21.1088 15.3313C 20.2566 15.8122 19.7272 16.6953 19.7272 17.6358L 19.7272 18.3565C 19.7272 21.8955 21.5996 25.0134 24.4242 26.8096L 24.4242 29.7714C 24.4242 30.1593 24.1903 30.5112 23.8283 30.6679L 22.3788 31.2955C 19.548 30.5531 17.7342 29.5633 16.8995 29.0336C 16.8828 29.0231 16.8734 29.011 16.8781 28.9838C 17.1847 27.2075 17.9724 22.0838 18.6645 12.8952C 18.9198 9.50488 20.1391 6.66538 22.1907 4.68392C 24.1964 2.74693 26.8967 1.723 29.9999 1.723C 33.1032 1.723 35.8035 2.74693 37.8092 4.68392C 39.8608 6.66538 41.0801 9.50477 41.3355 12.8951C 42.0275 22.0834 42.8152 27.2072 43.1219 28.9837C 43.1266 29.011 43.1172 29.0231 43.1004 29.0336C 42.2645 29.564 40.4507 30.5532 37.6211 31.2954ZM 46.9695 32.7375C 46.9695 32.7601 46.9567 32.7805 46.9361 32.7906L 44.1824 34.1401C 44.1497 34.1251 44.1183 34.1082 44.0853 34.0939L 40.0668 32.3542C 42.021 31.6703 43.3503 30.9278 44.0557 30.48C 44.6618 30.0953 44.9757 29.3953 44.8551 28.6964C 44.8485 28.6581 44.8414 28.6162 44.8343 28.5748C 45.3286 29.5491 46.0677 30.3756 46.9695 30.9842L 46.9695 32.7375ZM 52.0022 34.3393C 51.2533 35.0373 50.0797 35.0371 49.3306 34.3393L 48.5137 33.5784C 48.6515 33.3253 48.7272 33.0381 48.7272 32.7375L 48.7272 31.8208C 49.341 32.0074 49.9921 32.109 50.6664 32.109C 51.3406 32.109 51.9918 32.0074 52.6055 31.8208L 52.6054 32.7373C 52.6054 33.0381 52.6811 33.3253 52.819 33.5786L 52.0022 34.3393ZM 50.6665 30.3858C 48.233 30.3858 46.2005 28.5997 45.9388 26.231C 45.9248 26.1041 45.8822 25.9818 45.814 25.8729C 45.2616 24.9911 44.9697 23.984 44.9697 22.9603C 44.9697 19.8814 47.5252 17.3764 50.6665 17.3764C 53.8077 17.3764 56.3633 19.8814 56.3633 22.9604C 56.3633 23.5539 56.2645 24.1418 56.0743 24.703C 53.5787 22.2179 49.1885 21.2439 48.9769 21.1982C 48.717 21.142 48.4449 21.2045 48.2372 21.368C 48.0297 21.5316 47.9088 21.7785 47.9088 22.0395C 47.9088 22.0451 47.8688 22.6428 47.2269 23.2719C 46.8837 23.6083 46.8837 24.1539 47.2269 24.4902C 47.5702 24.8266 48.1267 24.8266 48.4698 24.4902C 48.9641 24.0057 49.2545 23.5139 49.4249 23.0987C 50.9038 23.5293 53.9733 24.6169 55.3508 26.5258C 54.9599 28.7461 52.9977 30.3858 50.6665 30.3858Z"/>
<path id="path26_fill" d="M 0.878902 1.04087e-06C 0.393513 1.04087e-06 -1.67683e-06 0.385722 -1.67683e-06 0.8615L -1.67683e-06 5.24792C -1.67683e-06 5.7237 0.393513 6.10942 0.878902 6.10942C 1.36429 6.10942 1.75781 5.7237 1.75781 5.24792L 1.75781 0.8615C 1.75781 0.385722 1.36429 1.04087e-06 0.878902 1.04087e-06Z"/>
<path id="path27_stroke_2x" d="M 20 1L 194.129 1L 194.129 -1L 20 -1L 20 1ZM 213.129 20L 213.129 168.791L 215.129 168.791L 215.129 20L 213.129 20ZM 194.129 187.791L 20 187.791L 20 189.791L 194.129 189.791L 194.129 187.791ZM 1 168.791L 1 20L -1 20L -1 168.791L 1 168.791ZM 20 187.791C 9.5066 187.791 1 179.284 1 168.791L -1 168.791C -1 180.389 8.40203 189.791 20 189.791L 20 187.791ZM 213.129 168.791C 213.129 179.284 204.622 187.791 194.129 187.791L 194.129 189.791C 205.727 189.791 215.129 180.389 215.129 168.791L 213.129 168.791ZM 194.129 1C 204.622 1 213.129 9.50659 213.129 20L 215.129 20C 215.129 8.40202 205.727 -1 194.129 -1L 194.129 1ZM 20 -1C 8.40202 -1 -1 8.40202 -1 20L 1 20C 1 9.50659 9.50659 1 20 1L 20 -1Z"/>
<path id="path28_fill" d="M 2.83594 21L 4.09277 17.0469L 9.15234 17.0469L 10.3984 21L 13.1484 21L 8.16406 6.33691L 5.19922 6.33691L 0.193359 21L 2.83594 21ZM 6.68164 8.96875L 8.59375 15.0703L 4.66211 15.0703L 6.58496 8.96875L 6.68164 8.96875ZM 14.3838 15.7578C 14.3838 18.9912 16.2314 21.1934 19.3252 21.1934C 21.9893 21.1934 23.6973 19.8506 23.9766 17.4873L 21.6025 17.4873C 21.4521 18.3574 20.7754 19.1201 19.4756 19.1201C 17.9072 19.1201 16.9297 17.8203 16.9297 15.7578L 16.9297 14.8125C 16.9297 12.7607 17.875 11.5039 19.4648 11.5039C 20.5605 11.5039 21.3555 12.3418 21.5381 13.2871L 23.9229 13.2871C 23.8369 11.2354 22.1396 9.44141 19.3359 9.44141C 16.2207 9.44141 14.3838 11.6328 14.3838 14.7588L 14.3838 15.7578ZM 25.8135 15.7578C 25.8135 18.9912 27.6611 21.1934 30.7549 21.1934C 33.4189 21.1934 35.127 19.8506 35.4062 17.4873L 33.0322 17.4873C 32.8818 18.3574 32.2051 19.1201 30.9053 19.1201C 29.3369 19.1201 28.3594 17.8203 28.3594 15.7578L 28.3594 14.8125C 28.3594 12.7607 29.3047 11.5039 30.8945 11.5039C 31.9902 11.5039 32.7852 12.3418 32.9678 13.2871L 35.3525 13.2871C 35.2666 11.2354 33.5693 9.44141 30.7656 9.44141C 27.6504 9.44141 25.8135 11.6328 25.8135 14.7588L 25.8135 15.7578ZM 42.3564 9.44141C 39.0586 9.44141 37.2432 11.7402 37.2432 14.8555L 37.2432 15.7363C 37.2432 18.9697 39.0479 21.1934 42.3564 21.1934C 45.6543 21.1934 47.4482 18.9697 47.4482 15.7256L 47.4482 14.8447C 47.4482 11.7295 45.6436 9.44141 42.3564 9.44141ZM 42.3564 11.4395C 44.0752 11.4395 44.8916 12.8682 44.8916 14.8662L 44.8916 15.7471C 44.8916 17.6914 44.0859 19.1738 42.3564 19.1738C 40.6162 19.1738 39.7998 17.6914 39.7998 15.7471L 39.7998 14.8662C 39.7998 12.8789 40.627 11.4395 42.3564 11.4395ZM 59.6084 9.63477L 57.0732 9.63477L 57.0732 16.4561C 57.0732 18.1104 56.0527 19.002 54.6777 19.002C 53.4531 19.002 52.3467 18.4326 52.3467 16.4883L 52.3467 9.63477L 49.8008 9.63477L 49.8008 17.1758C 49.8008 19.8291 51.4014 21.1719 53.7324 21.1719C 55.5908 21.1719 56.6436 20.2803 57.0088 19.3887L 57.127 19.3887L 57.127 21L 59.6084 21L 59.6084 9.63477ZM 62.5732 21L 65.1084 21L 65.1084 14.2646C 65.1084 12.793 65.9141 11.6436 67.5146 11.6436C 68.8574 11.6436 69.8994 12.4277 69.8994 14.2217L 69.8994 21L 72.4346 21L 72.4346 13.6953C 72.4346 10.9131 70.7803 9.45215 68.46 9.45215C 66.5801 9.45215 65.5381 10.4834 65.1621 11.2461L 65.0654 11.2461L 65.0654 9.63477L 62.5732 9.63477L 62.5732 21ZM 76.0547 9.63477L 74.4219 9.63477L 74.4219 11.6436L 76.0117 11.6436L 76.0117 17.7988C 76.0117 20.0869 76.8281 21.0752 79.6211 21.0752C 80.1367 21.0752 80.5986 21.0215 80.8027 20.9893L 80.8027 19.0664C 80.6631 19.0879 80.459 19.0879 80.2441 19.0879C 78.998 19.0879 78.5254 18.7441 78.5254 17.541L 78.5254 11.6436L 80.7383 11.6436L 80.7383 9.63477L 78.5254 9.63477L 78.5254 6.88477L 76.0547 6.88477L 76.0547 9.63477ZM 82.7471 12.9648C 82.7471 15.0596 84.4336 15.79 86.4961 16.2197C 87.9893 16.5205 89.3213 16.7031 89.3213 17.8525C 89.3213 18.6582 88.6553 19.3564 87.2051 19.3564C 85.9053 19.3564 85.1211 18.7441 85.0029 17.8525L 82.5322 17.8525C 82.5322 19.8828 84.251 21.1934 87.0547 21.1934C 89.9658 21.1934 91.792 19.8506 91.792 17.5303C 91.792 15.3926 90.1807 14.7266 88.0752 14.3506C 86.7861 14.1143 85.1855 13.8994 85.1855 12.7178C 85.1855 11.8047 85.9697 11.2676 87.1406 11.2676C 88.6338 11.2676 89.1172 12.127 89.1924 12.8896L 91.459 12.8896C 91.459 10.8379 89.9014 9.44141 87.2051 9.44141C 84.874 9.44141 82.7471 10.4834 82.7471 12.9648Z"/>
<path id="path29_fill" d="M 30.2498 10.0839C 30.7558 10.0839 31.1664 9.67323 31.1664 9.16724L 31.1664 5.50062C 31.1664 5.09912 30.9061 4.74529 30.5229 4.62521L 15.8564 0.0419377C 15.6786 -0.0139782 15.4879 -0.0139782 15.3091 0.0419377L 0.642579 4.62521C 0.260331 4.74529 8.65738e-12 5.09912 8.65738e-12 5.50062L 8.65738e-12 9.16724C 8.65738e-12 9.67323 0.410664 10.0839 0.91666 10.0839L 1.83332 10.0839L 1.83332 22.0004L 0.91666 22.0004C 0.410664 22.0004 8.65738e-12 22.4111 8.65738e-12 22.9171L 8.65738e-12 26.5837C 8.65738e-12 27.0897 0.410664 27.5003 0.91666 27.5003L 30.2498 27.5003C 30.7558 27.5003 31.1664 27.0897 31.1664 26.5837L 31.1664 22.9171C 31.1664 22.4111 30.7558 22.0004 30.2498 22.0004L 29.3331 22.0004L 29.3331 10.0839L 30.2498 10.0839ZM 29.3331 25.667L 1.83332 25.667L 1.83332 23.8337L 2.74998 23.8337L 6.41662 23.8337L 10.0833 23.8337L 13.7499 23.8337L 17.4165 23.8337L 21.0832 23.8337L 24.7498 23.8337L 28.4165 23.8337L 29.3331 23.8337L 29.3331 25.667ZM 3.66664 22.0004L 3.66664 10.0839L 5.49996 10.0839L 5.49996 22.0004L 3.66664 22.0004ZM 7.33328 22.0004L 7.33328 10.0839L 9.1666 10.0839L 9.1666 22.0004L 7.33328 22.0004ZM 10.9999 22.0004L 10.9999 10.0839L 12.8332 10.0839L 12.8332 22.0004L 10.9999 22.0004ZM 14.6666 22.0004L 14.6666 10.0839L 16.4999 10.0839L 16.4999 22.0004L 14.6666 22.0004ZM 18.3332 22.0004L 18.3332 10.0839L 20.1665 10.0839L 20.1665 22.0004L 18.3332 22.0004ZM 21.9998 22.0004L 21.9998 10.0839L 23.8332 10.0839L 23.8332 22.0004L 21.9998 22.0004ZM 25.6665 22.0004L 25.6665 10.0839L 27.4998 10.0839L 27.4998 22.0004L 25.6665 22.0004ZM 28.4165 8.25058L 24.7498 8.25058L 21.0832 8.25058L 17.4165 8.25058L 13.7499 8.25058L 10.0833 8.25058L 6.41662 8.25058L 2.74998 8.25058L 1.83332 8.25058L 1.83332 6.17436L 15.5832 1.87708L 29.3331 6.17436L 29.3331 8.25058L 28.4165 8.25058Z"/>
<path id="path30_fill" d="M 30.2498 10.0839C 30.7558 10.0839 31.1664 9.67323 31.1664 9.16724L 31.1664 5.50062C 31.1664 5.09912 30.9061 4.74529 30.5229 4.62521L 15.8564 0.041937C 15.6786 -0.013979 15.4879 -0.013979 15.3091 0.041937L 0.642579 4.62521C 0.260332 4.74529 -1.03569e-06 5.09912 -1.03569e-06 5.50062L -1.03569e-06 9.16724C -1.03569e-06 9.67323 0.410663 10.0839 0.91666 10.0839L 1.83332 10.0839L 1.83332 22.0004L 0.91666 22.0004C 0.410663 22.0004 -1.03569e-06 22.4111 -1.03569e-06 22.9171L -1.03569e-06 26.5837C -1.03569e-06 27.0897 0.410663 27.5003 0.91666 27.5003L 30.2498 27.5003C 30.7558 27.5003 31.1664 27.0897 31.1664 26.5837L 31.1664 22.9171C 31.1664 22.4111 30.7558 22.0004 30.2498 22.0004L 29.3331 22.0004L 29.3331 10.0839L 30.2498 10.0839ZM 29.3331 25.667L 1.83332 25.667L 1.83332 23.8337L 2.74998 23.8337L 6.41662 23.8337L 10.0833 23.8337L 13.7499 23.8337L 17.4165 23.8337L 21.0832 23.8337L 24.7498 23.8337L 28.4165 23.8337L 29.3331 23.8337L 29.3331 25.667ZM 3.66664 22.0004L 3.66664 10.0839L 5.49996 10.0839L 5.49996 22.0004L 3.66664 22.0004ZM 7.33328 22.0004L 7.33328 10.0839L 9.1666 10.0839L 9.1666 22.0004L 7.33328 22.0004ZM 10.9999 22.0004L 10.9999 10.0839L 12.8332 10.0839L 12.8332 22.0004L 10.9999 22.0004ZM 14.6666 22.0004L 14.6666 10.0839L 16.4999 10.0839L 16.4999 22.0004L 14.6666 22.0004ZM 18.3332 22.0004L 18.3332 10.0839L 20.1665 10.0839L 20.1665 22.0004L 18.3332 22.0004ZM 21.9998 22.0004L 21.9998 10.0839L 23.8332 10.0839L 23.8332 22.0004L 21.9998 22.0004ZM 25.6665 22.0004L 25.6665 10.0839L 27.4998 10.0839L 27.4998 22.0004L 25.6665 22.0004ZM 28.4165 8.25058L 24.7498 8.25058L 21.0832 8.25058L 17.4165 8.25058L 13.7499 8.25058L 10.0833 8.25058L 6.41662 8.25058L 2.74998 8.25058L 1.83332 8.25058L 1.83332 6.17436L 15.5832 1.87708L 29.3331 6.17436L 29.3331 8.25058L 28.4165 8.25058Z"/>
<path id="path31_fill" d="M 1.83332 0L 0 0L 0 1.83331L 1.83332 1.83331L 1.83332 0Z"/>
<path id="path32_fill" d="M 1.83332 0L 0 0L 0 1.83331L 1.83332 1.83331L 1.83332 0Z"/>
<path id="path33_fill" d="M 1.83332 0L 0 0L 0 1.83331L 1.83332 1.83331L 1.83332 0Z"/>
<path id="path34_fill" d="M 1.83332 0L 0 0L 0 1.83331L 1.83332 1.83331L 1.83332 0Z"/>
<path id="path35_fill" d="M 1.83332 0L 0 0L 0 1.83331L 1.83332 1.83331L 1.83332 0Z"/>
<path id="path36_fill" d="M 1.83332 0L 0 0L 0 1.83331L 1.83332 1.83331L 1.83332 0Z"/>
<path id="path37_fill" d="M 1.83332 0L 0 0L 0 1.83331L 1.83332 1.83331L 1.83332 0Z"/>
<path id="path38_fill" d="M 1.83332 0L 0 0L 0 1.83331L 1.83332 1.83331L 1.83332 0Z"/>
<path id="path39_fill" d="M 1.83332 0L 0 0L 0 1.83331L 1.83332 1.83331L 1.83332 0Z"/>
<path id="path40_fill" d="M 1.83332 0L 0 0L 0 1.83331L 1.83332 1.83331L 1.83332 0Z"/>
<path id="path41_fill" d="M 1.83332 0L 0 0L 0 1.83331L 1.83332 1.83331L 1.83332 0Z"/>
<path id="path42_fill" d="M 1.83332 0L 0 0L 0 1.83331L 1.83332 1.83331L 1.83332 0Z"/>
<path id="path43_fill" d="M 1.83332 0L 0 0L 0 1.83331L 1.83332 1.83331L 1.83332 0Z"/>
<path id="path44_fill" d="M 1.83332 0L 0 0L 0 1.83331L 1.83332 1.83331L 1.83332 0Z"/>
<path id="path45_fill" d="M 1.83332 0L 0 0L 0 1.83331L 1.83332 1.83331L 1.83332 0Z"/>
<path id="path46_fill" d="M 1.83332 0L 0 0L 0 1.83331L 1.83332 1.83331L 1.83332 0Z"/>
<path id="path47_fill" d="M 1.83332 0L 0 0L 0 1.83331L 1.83332 1.83331L 1.83332 0Z"/>
<path id="path48_fill" d="M 1.83332 0L 0 0L 0 1.83331L 1.83332 1.83331L 1.83332 0Z"/>
</defs>
</svg>
